{
    "asset" : {
        "generator" : "Khronos glTF Blender I/O v1.0.5",
        "version" : "2.0"
    },
    "scene" : 0,
    "scenes" : [
        {
            "name" : "Scene",
            "nodes" : [
                6,
                7
            ]
        }
    ],
    "nodes" : [
        {
            "mesh" : 0,
            "name" : "Object_5"
        },
        {
            "mesh" : 1,
            "name" : "Object_6"
        },
        {
            "children" : [
                0,
                1
            ],
            "name" : "etelinteriores_dinamarquesa_mat(2)_0",
            "scale" : [
                0.009999999776482582,
                0.009999999776482582,
                0.009999999776482582
            ]
        },
        {
            "children" : [
                2
            ],
            "name" : "GLTF_SceneRootNode",
            "rotation" : [
                0.7071068286895752,
                0,
                0,
                0.7071068286895752
            ]
        },
        {
            "children" : [
                3
            ],
            "name" : "root"
        },
        {
            "children" : [
                4
            ],
            "name" : "RootNode (model correction matrix)"
        },
        {
            "children" : [
                5
            ],
            "name" : "RootNode (gltf orientation matrix)"
        },
        {
            "name" : "Point",
            "scale" : [
                -0.45302996039390564,
                6.069296836853027,
                133.0764617919922
            ],
            "translation" : [
                0,
                0.6750351786613464,
                0.48861777782440186
            ]
        }
    ],
    "materials" : [
        {
            "doubleSided" : true,
            "emissiveFactor" : [
                0,
                0,
                0
            ],
            "name" : "etelinteriores_dinamarquesa_mat2_mtl_1",
            "pbrMetallicRoughness" : {
                "baseColorTexture" : {
                    "index" : 0,
                    "texCoord" : 0
                },
                "metallicFactor" : 0,
                "roughnessFactor" : 0.8945909738540649
            }
        },
        {
            "doubleSided" : true,
            "emissiveFactor" : [
                0,
                0,
                0
            ],
            "name" : "etelinteriores_dinamarquesa_mat2_mtl_2",
            "pbrMetallicRoughness" : {
                "baseColorTexture" : {
                    "index" : 1,
                    "texCoord" : 0
                },
                "metallicRoughnessTexture" : {
                    "index" : 2,
                    "texCoord" : 0
                }
            }
        }
    ],
    "meshes" : [
        {
            "name" : "Mesh_0",
            "primitives" : [
                {
                    "attributes" : {
                        "POSITION" : 0,
                        "NORMAL" : 1,
                        "TEXCOORD_0" : 2
                    },
                    "indices" : 3,
                    "material" : 0
                }
            ]
        },
        {
            "name" : "Mesh_1",
            "primitives" : [
                {
                    "attributes" : {
                        "POSITION" : 4,
                        "NORMAL" : 5,
                        "TEXCOORD_0" : 6
                    },
                    "indices" : 7,
                    "material" : 1
                }
            ]
        }
    ],
    "textures" : [
        {
            "source" : 0
        },
        {
            "source" : 1
        },
        {
            "source" : 2
        }
    ],
    "images" : [
        {
            "mimeType" : "image/png",
            "name" : "etelinteriores_dinamarquesa_mat2_mtl_1_baseColor",
            "uri" : "etelinteriores_dinamarquesa_mat2_mtl_1_baseColor.png"
        },
        {
            "mimeType" : "image/png",
            "name" : "etelinteriores_dinamarquesa_mat2_mtl_2_baseColor",
            "uri" : "etelinteriores_dinamarquesa_mat2_mtl_2_baseColor.png"
        },
        {
            "mimeType" : "image/png",
            "name" : "etelinteriores_dinamarquesa_mat2_mtl_2_metallicRoughness",
            "uri" : "etelinteriores_dinamarquesa_mat2_mtl_2_metallicRoughness.png"
        }
    ],
    "accessors" : [
        {
            "bufferView" : 0,
            "componentType" : 5126,
            "count" : 6614,
            "max" : [
                30.197500228881836,
                39.5,
                -22.313600540161133
            ],
            "min" : [
                -30.028099060058594,
                -39.5,
                -68.10299682617188
            ],
            "type" : "VEC3"
        },
        {
            "bufferView" : 1,
            "componentType" : 5126,
            "count" : 6614,
            "type" : "VEC3"
        },
        {
            "bufferView" : 2,
            "componentType" : 5126,
            "count" : 6614,
            "type" : "VEC2"
        },
        {
            "bufferView" : 3,
            "componentType" : 5123,
            "count" : 35628,
            "type" : "SCALAR"
        },
        {
            "bufferView" : 4,
            "componentType" : 5126,
            "count" : 14878,
            "max" : [
                34,
                35.540199279785156,
                -0.10300000011920929
            ],
            "min" : [
                -34,
                -39.23649978637695,
                -61.7234992980957
            ],
            "type" : "VEC3"
        },
        {
            "bufferView" : 5,
            "componentType" : 5126,
            "count" : 14878,
            "type" : "VEC3"
        },
        {
            "bufferView" : 6,
            "componentType" : 5126,
            "count" : 14878,
            "type" : "VEC2"
        },
        {
            "bufferView" : 7,
            "componentType" : 5123,
            "count" : 68952,
            "type" : "SCALAR"
        }
    ],
    "bufferViews" : [
        {
            "buffer" : 0,
            "byteLength" : 79368,
            "byteOffset" : 0
        },
        {
            "buffer" : 0,
            "byteLength" : 79368,
            "byteOffset" : 79368
        },
        {
            "buffer" : 0,
            "byteLength" : 52912,
            "byteOffset" : 158736
        },
        {
            "buffer" : 0,
            "byteLength" : 71256,
            "byteOffset" : 211648
        },
        {
            "buffer" : 0,
            "byteLength" : 178536,
            "byteOffset" : 282904
        },
        {
            "buffer" : 0,
            "byteLength" : 178536,
            "byteOffset" : 461440
        },
        {
            "buffer" : 0,
            "byteLength" : 119024,
            "byteOffset" : 639976
        },
        {
            "buffer" : 0,
            "byteLength" : 137904,
            "byteOffset" : 759000
        }
    ],
    "buffers" : [
        {
            "byteLength" : 896904,
            "uri" : "Dinamarquesa.bin"
        }
    ]
}
